<svg xmlns="http://www.w3.org/2000/svg" width="91" height="91" viewBox="0 0 91 91"><path stroke="#fff" d="M51.018 36.786c.236-.408.505-.927.742-1.468.337-.77.645-1.667.645-2.378 0-1.528-1.228-2.424-2.542-2.412s-2.494.986-2.494 2.412c0 .81.324 1.71.68 2.468.248.524.525 1.01.763 1.393l-.063.03c-.277.128-.642.287-1.08.467-.875.36-2.029.801-3.315 1.24-2.583.884-5.657 1.749-8.067 1.965-3.582.322-7.58-.23-11.655-.794l-.02-.003c-3.217-.446-6.479-.898-9.546-.898-2.163 0-4.144.375-5.704 1.005-1.541.622-2.755 1.529-3.248 2.652l-.332.754.822-.054.266-.018c2.762-.193 14.148-.975 23.189 4.373 8.276 4.895 12.27 7.06 14.151 8.046-.907.747-1.673 1.719-2.242 2.608-.356.555-.643 1.09-.846 1.539a6 6 0 0 0-.243.61 2 2 0 0 0-.112.503l-.016.241.18.162c1.534 1.385 4.564 2.23 9.588 2.23 2.047 0 3.903-.279 5.412-.689 1.497-.407 2.694-.956 3.393-1.525l.261-.213-.1-.322c-.265-.859-.911-2.01-1.726-3.062-.602-.777-1.323-1.535-2.092-2.094.29-.148.622-.324.984-.52.829-.447 1.847-1.017 2.942-1.628l.003-.002a264 264 0 0 1 4.985-2.739c1.611-.853 3.016-1.543 3.895-1.852.598-.21 1.388-.462 2.297-.751l.009-.003c1.844-.587 4.16-1.323 6.218-2.153 1.032-.416 2.01-.859 2.838-1.324.821-.46 1.53-.961 1.995-1.504.75-.876 1.956-3.044 2.213-5.6.262-2.592-.455-5.591-3.577-8.012-2.93-2.27-6.412-2.466-9.142-1.291-2.727 1.172-4.733 3.731-4.634 6.95.046 1.496.468 2.685 1.135 3.605.665.917 1.554 1.54 2.495 1.94 1.86.792 3.989.742 5.213.32 2.034-.7 2.96-2.631 2.87-4.357-.047-.867-.35-1.717-.93-2.357-.59-.65-1.439-1.053-2.505-1.053-.925 0-1.633.25-2.097.684a1.77 1.77 0 0 0-.557 1.577 1.81 1.81 0 0 0 .934 1.316c.514.276 1.164.313 1.862.042a.66.66 0 0 1-.034.345c-.125.365-.593.922-1.873.864-1.333-.06-2.181-.68-2.66-1.454-.494-.796-.606-1.773-.41-2.525a3.94 3.94 0 0 1 1.662-2.342c.85-.555 2.021-.856 3.519-.684 1.656.19 3.45 1.605 4.287 3.526.817 1.874.702 4.188-1.403 6.211-1.52 1.463-3.932 1.988-6.79 1.907-2.843-.08-6.02-.758-8.956-1.58-4.348-1.22-9.167-3.22-11.437-4.324M.618 15.498c0-8.008 6.492-14.5 14.5-14.5h59.93c8.009 0 14.5 6.492 14.5 14.5v59.93c0 8.008-6.491 14.5-14.5 14.5h-59.93c-8.008 0-14.5-6.492-14.5-14.5z"/></svg>