<svg xmlns="http://www.w3.org/2000/svg" width="88" height="88" viewBox="0 0 88 88"><path stroke="#fff" d="m42.438 45.058-.354.293V23.746q1.128-.51 2.328-.987l.464-.185-.184-.465-1.766-4.448-.184-.464-.465.184-.193.077v-1.407h-4.79v3.586c-14.988 7.687-21.99 20.085-21.022 29.117.273 2.55 1.211 4.937 2.957 6.755 1.771 1.844 4.175 2.892 6.957 3.064 3.237.2 6.972-.772 11.108-2.97v1.922h4.79V52.63a63 63 0 0 0 4.062-3.132l.383-.32-.32-.384-3.067-3.674-.32-.384zm10.703-7.661v-.5h-5.786v21.837H60.35v16.61h5.785V36.898H60.35v16.051h-7.21zm34.14 7.066c0 23.742-19.247 42.988-42.99 42.988-23.741 0-42.988-19.246-42.988-42.988S20.55 1.474 44.292 1.474 87.28 20.721 87.28 44.463m-65.257 3.674c-.583-5.44 3.634-14.984 15.27-21.9v22.652c-4.782 3.103-8.38 4.056-10.751 3.91-1.498-.093-2.484-.613-3.14-1.298-.683-.71-1.212-1.81-1.379-3.364"/></svg>