<svg width="530" height="562" viewBox="0 0 530 562" fill="none" xmlns="http://www.w3.org/2000/svg"><path d="m.21 506.638 23.833-158.532 166.303-15.025-20.205 189.099zm348.026 53.737c.998-48.227-6.985-129.381-11.641-174.614 59.535-4.324 159.315 6.319 179.603 15.632 12.972 40.244 15.632 117.74 12.306 135.7-39.911 15.632-168.96 27.938-180.268 23.282m10.976-245.458c-7.317-18.164-46.231-109.092-48.56-114.414-.665-1.108-1.197-3.725 1.996-5.321 23.614-7.317 125.722-27.606 134.37-29.601 8.647-1.996 10.31.332 12.306 3.991 11.308 19.623 48.892 94.458 50.887 98.449 1.996 3.991 1.331 9.313-1.995 9.978s-134.37 38.914-138.361 39.579-7.982 2.661-10.643-2.661M197.236 139.305V.945h182.597v138.36zM60.863 261.881c-.427-32.192 12.969-80.214 19.72-100.201 7.035-11.938 29.936-13.857 40.507-13.324-8.528 43.882-26.063 134.045-27.982 143.638-20.52-7.461-33.045-20.786-32.245-30.113" fill="#D9D9D9"/></svg>