<svg xmlns="http://www.w3.org/2000/svg" width="622" height="660" viewBox="0 0 622 660" fill="none"><path d="M560.593 472.101c-20.819-98.12-83.6-77.029-83.6-77.029-19.574-18.035-8.156-33.721 0-39.31 9.527-38.26 50.111-51.606 69.212-53.497l64.062 20.522 11.092 4.021-41.128 146.489-9.666.555c-2.578.089-6.112-.894-9.972-1.751" stroke="#fff" fill="#000"/><path d="m476.993 355.762 8.639 2.376m-8.639-2.376c9.527-38.26 50.111-51.606 69.212-53.497l64.062 20.522m-133.274 32.975c-8.156 5.589-19.574 21.275 0 39.31m8.639-36.934-8.639 36.934m8.639-36.934c21.305 2.777 76.059-.406 124.635-35.351m-133.274 72.285s62.781-21.091 83.6 77.029c3.86.857 7.394 1.84 9.972 1.751m0 0 9.666-.555 41.128-146.489-11.092-4.021m-39.702 151.065 39.702-151.065" stroke="#fff" stroke-miterlimit="6.407"/><path fill-rule="evenodd" clip-rule="evenodd" d="M90.877 178.152c-2.173 9.913-19.178 90.569-20.195 102.262-.153 1.75-.3 3.345-.437 4.807-.773 8.307-1.149 12.342.437 16.378.172.44.34.944.532 1.517 1.873 5.61 5.952 17.834 38.108 41.19 3.14 2.715 16.244 8.081 22.404 10.424h6.963c17.336-1.995 52.855-6.028 56.25-6.202 4.243-.217 5.549-1.632 6.093-3.699 9.628-1.543 30.415-4.999 36.54-6.478 24.306 7.097 41.016-.205 47.387-2.989 1.222-.535 2.064-.902 2.506-.97.667-.103 1.424-.156 2.216-.211 3.284-.229 7.177-.5 7.815-4.541.239-1.512 1.614-9.485 3.429-20.016 4.206-24.398 10.778-62.526 11.082-65.87.435-4.787-1.342-22.239-3.518-23.436-.799-.439-5.939-.932-12.575-1.567-11.43-1.096-27.302-2.616-33.084-5.026-7.616-7.289-25.237-33.437-29.589-40.4l.126-.704c.786-4.372 1.119-6.225-3.83-8.182-4.093-1.618-13.951-6.338-24.45-11.364-8.972-4.295-18.411-8.813-25.118-11.811-3.388-1.514-6.079-2.641-7.66-3.154-15.407-.871-22.595.362-24.263 1.088-7.289 1.632-43.084 9.683-53.094 27.744-2.258 4.074-3.442 8.67-4.075 11.21m8.147 6.925c1.358-4.209 6.765-14.186 38.212-15.444-4.279 22.99-16.477 86.477-27.312 140.424-27.719-13.435-31.146-24.822-29.1-29.643-.116-31.825 12.274-76.818 18.2-95.337" stroke="#fff" fill="#000"/><path d="M90.877 178.152c-2.173 9.913-19.178 90.569-20.195 102.262m20.195-102.262c.633-2.54 1.817-7.136 4.075-11.21 10.01-18.061 45.805-26.112 53.094-27.744m-57.17 38.954c3.563-9.814 23.625-16.305 41.702-20.644 4.737-1.137 6.918-1.35 6.22 3.469-.117.804-.666 3.842-1.562 8.656m-46.36 8.519c1.223 1.494 4.563 4.97 8.148 6.925m-28.342 95.337c0 8.383 4.142 19.916 34.715 37.868 1.305.435 2.632 1.181 3.046-.871q.735-3.643 1.481-7.354m-39.242-29.643h10.142m-10.142 0c-.153 1.75-.3 3.345-.437 4.807-.773 8.307-1.149 12.342.437 16.378.172.44.34.944.532 1.517 1.873 5.61 5.952 17.834 38.108 41.19m0 0c3.3 2.397 4.549 0 5.084-2.542 17.115-81.248 26.92-118.678 38.344-195.724.627-4.231 2.586-8.474-4.704-6.842m-38.724 205.108c3.14 2.715 16.244 8.081 22.404 10.424m16.32-215.532c1.668-.726 8.856-1.959 24.263-1.088m-73.285 46.967c1.358-4.209 6.765-14.186 38.212-15.444m-38.212 15.444c-5.926 18.519-18.316 63.512-18.2 95.337m56.412-110.781c-4.279 22.99-16.477 86.477-27.312 140.424m-29.1-29.643c-2.046 4.821 1.381 16.208 29.1 29.643m62.385-171.947c.378.46 1.021 2.176.567 5.354-.567 3.973-35.93 194.402-39.319 207.452-.407 1.491-1.39 3.164-1.831 3.814m40.583-216.62c1.581.513 4.272 1.64 7.66 3.154m53.272 32.061c4.352 6.963 21.973 33.111 29.589 40.4m-29.589-40.4c-7.957 45.018-25.54 145.641-32.209 171.504m32.209-171.504.126-.704c.786-4.372 1.119-6.225-3.83-8.182-4.093-1.618-13.951-6.338-24.45-11.364-8.972-4.295-18.411-8.813-25.118-11.811m82.861 72.461c-4.196 28.695-15.121 93.793-25.258 124.626m25.258-124.626c5.782 2.41 21.654 3.93 33.084 5.026 6.636.635 11.776 1.128 12.575 1.567 2.176 1.197 3.953 18.649 3.518 23.436-.304 3.344-6.876 41.472-11.082 65.87-1.815 10.531-3.19 18.504-3.429 20.016-.638 4.041-4.531 4.312-7.815 4.541-.792.055-1.549.108-2.216.211-.442.068-1.284.435-2.506.97-6.371 2.784-23.081 10.086-47.387 2.989m0 0c-6.125 1.479-26.912 4.935-36.54 6.478m0 0c-.544 2.067-1.85 3.482-6.093 3.699-3.395.174-38.914 4.207-56.25 6.202m0 0h-6.963m6.963 0c.502-.24 1.645-1.338 2.204-3.814.699-3.096 36.321-185.259 39.324-205.375.28-1.661-.049-3.544-.248-4.277" stroke="#fff" stroke-miterlimit="6.407"/><path fill-rule="evenodd" clip-rule="evenodd" d="M204.83 2.187c-3.828.082-5.202 1.42-5.202 5.203 0 16.332-.055 31.164-.107 45.128-.163 43.994-.294 79.379 1.425 125.962.112 3.051 2.8 4.993 6.017 4.993 10.849 0 21.566-.02 32.272-.052q.152.773.295 1.53c.622 3.27 1.193 6.274 2.657 8.305-.585 7.36 2.435 27.266 64.461 27.266 28.448-24.622 60.761-16.492 60.129-24.739 4.155-1.025 6.577-8.556 7.949-12.94 10.066-.022 21.883-.035 32.615-.035 3.407 0 5.902-2.642 5.902-5.902 0-23.332.074-41.553.136-57.084.167-41.309.257-63.591-1.316-112.432-.126-3.889-2.351-4.79-6.075-4.888C330.422.524 279.082.611 204.83 2.187m12.426 156.14V22.887h179.326v135.44z" fill="#000"/><path d="M239.235 183.421c-10.706.032-21.423.052-32.272.052-3.217 0-5.905-1.942-6.017-4.993-1.719-46.583-1.588-81.968-1.425-125.962.052-13.965.107-28.796.107-45.128 0-3.784 1.374-5.121 5.202-5.203C279.082.611 330.422.524 405.988 2.502c3.724.098 5.949 1 6.075 4.888 1.573 48.84 1.483 71.124 1.316 112.432-.062 15.531-.136 33.752-.136 57.084 0 3.26-2.495 5.902-5.902 5.902-10.732 0-22.549.013-32.615.035m-135.491.578c28.491-.086 56.267-.263 86.406-.404m-86.406.404q.152.773.295 1.53c.622 3.27 1.193 6.274 2.657 8.305m132.539-10.413c-11.915.025-23.327.064-34.376.109m34.376-.109c-1.372 4.384-3.794 11.915-7.949 12.94m-41.136-12.766c.392 2.475.94 8.516 0 12.883m0-12.883c4.838-.023 9.737-.045 14.709-.065M325.641 195.9h-47.569m47.569 0h7.062m7.647-12.948c.97 4.314.864 8.741 0 12.948m0 0h-7.647m7.647 0h23.45m-85.728 0h-30.096c-1.827 0-3.208-.415-4.276-1.147m34.372 1.147c9.077 6.468 44.209 7.484 54.631 0m-89.003-1.147c4.276 9.8 16.722 22.407 62.948 22.407 17.189-9.098 3.574-13.026 57.152-21.26m-120.1-1.147a6.2 6.2 0 0 1-1.513-1.497M363.8 195.9h2.017q.495 0 .96-.117m0 0c.632 8.247-31.681.117-60.129 24.739-62.026 0-65.046-19.906-64.461-27.266m-24.931-170.37v135.441h179.326V22.887z" stroke="#fff" stroke-miterlimit="6.407"/><path fill-rule="evenodd" clip-rule="evenodd" d="M35.26 350.75 1.54 555.587l31.729 4.161c-1.075 1.922-1.337 6.087 6.217 7.377s37.386 3.455 51.358 4.376c5.607 3.445 17.613 10.352 25.561 13.466-9.211 2.113-29.108 7.675-35.004 13.018q-.263.3-.377.687-.005.12 0 .243v5.174c2.637 3.607 20.838 10.821 72.549 10.821 64.639 0 85.78-11.255 90.471-15.946.073-.954-.023-3.19-.995-4.501-.405-.65-1.353-1.24-2.94-1.748 1.652.116 2.995.181 3.935.181 4.663-1.316 17.721-6.099 32.645-14.709 10.905-1.435 34.199-2.75 44.483-3.228l6.457-158.92c-11.958-2.032-40.322-20.376-58.115-77.486l-42.331-12.197zM21.628 523.66l22.6-152.104L205.3 356.131l-19.73 181.878z" fill="#000"/><path d="m198.484 581.416 28.699-255.06m-28.699 255.06 45.56 11.48m-45.56-11.48L33.269 559.748m193.914-233.392L35.26 350.75 1.54 555.587l31.729 4.161m193.914-233.392 42.331 12.197m0 0-25.47 254.343m25.47-254.343c17.793 57.11 46.157 75.454 58.115 77.486l-6.457 158.92c-10.284.478-33.578 1.793-44.483 3.228-14.924 8.61-27.982 13.393-32.645 14.709m0 0c-.94 0-2.283-.065-3.935-.181m-206.84-32.967c-1.075 1.922-1.337 6.087 6.217 7.377s37.386 3.455 51.358 4.376m0 0c25.409 3.462 81.665 11.487 103.405 15.891M90.844 571.501c5.607 3.445 17.613 10.352 25.561 13.466m77.844 2.425c-37.539 7.139-65.406 1.381-74.848-1.382a36 36 0 0 1-2.996-1.043m77.844 2.425c10.988 1.598 35.048 4.565 45.86 5.323m-123.704-7.748c-9.211 2.113-29.108 7.675-35.004 13.018q-.263.3-.377.687m159.085-5.957c1.587.508 2.535 1.098 2.94 1.748m-162.025 4.209q-.005.12 0 .243m0-.243v.243m162.025-4.452c2.653 4.249-17.939 10.997-34.521 13.195-48.824 7.37-101.563.921-114-1.151-10.732-1.789-13.419-5.156-13.504-7.592m162.025-4.452c.972 1.311 1.068 3.547.995 4.501-4.691 4.691-25.832 15.946-90.471 15.946-51.711 0-69.912-7.214-72.55-10.821v-5.174M44.23 371.556 21.63 523.66l163.941 14.349 19.73-181.878z" stroke="#fff" stroke-miterlimit="6.407"/><path d="M459.556 341.526q.154.325.246.659c.425 1.553-.171 3.158-1.5 3.792-1.52.725-3.422-.093-4.249-1.827s-.265-3.727 1.254-4.452c1.52-.724 3.422.094 4.249 1.828m9.038-3.175q.151.317.241.642c.435 1.559-.16 3.173-1.495 3.81-1.519.725-3.422-.093-4.248-1.827s-.266-3.727 1.254-4.452c1.519-.725 3.421.094 4.248 1.827m7.048-2.624q.142.298.23.603c.456 1.57-.138 3.207-1.484 3.848-1.519.725-3.422-.093-4.249-1.827s-.265-3.727 1.255-4.451c1.519-.725 3.421.093 4.248 1.827m8.498-2.625q.187.394.281.798c.354 1.509-.245 3.038-1.535 3.654-1.52.725-3.422-.093-4.249-1.827s-.265-3.727 1.254-4.452 3.422.093 4.249 1.827m-56.051 15.715c.265.556.445 1.128.545 1.698.425 2.416-.587 4.796-2.653 5.782-2.553 1.218-5.749-.157-7.138-3.07s-.446-6.262 2.107-7.48 5.749.157 7.139 3.07" fill="#000"/><path d="M524.999 296.087c-14.105 3.907-87.14 24.397-138.763 40.261-3.589 1.103-5.57 1.068-6.589-.834 3.007 6.332 8.899 18.621 9.793 20.026 1.141 1.792 2.607 2.118 4.399 2.118s20.162-2.979 25.004-4.431c-1.39-2.913-.446-6.262 2.107-7.48s5.749.157 7.139 3.07c.265.556.445 1.128.545 1.698 4.678-.798 16.312-3.188 25.419-6.365-.827-1.734-.265-3.727 1.254-4.452 1.52-.724 3.422.094 4.249 1.828q.154.325.246.659l3.29-1.209c-.827-1.734-.266-3.727 1.254-4.452 1.519-.725 3.421.094 4.248 1.827q.151.317.241.642l1.304-.642c-.827-1.734-.265-3.727 1.255-4.451 1.519-.725 3.421.093 4.248 1.827q.142.298.23.603l2.765-.603c-.827-1.734-.265-3.727 1.254-4.452s3.422.093 4.249 1.827q.187.394.281.798c18.121-5.094 47.297-17.252 48.829-18.282 1.531-1.03 3.758-2.227 3.618-5.567-.139-3.341-6.681-16.842-9.669-16.608-.157 1.215-.82 2.262-2.2 2.644" fill="#000"/><path fill-rule="evenodd" clip-rule="evenodd" d="M305.808 209.893c3.234 9.702 63.243 150.416 64.861 154.189 2.156 3.234 3.773 3.234 9.702 3.234 2.209 0 9.879-.374 20.807-1.623 18.409-2.105 46.064-6.694 72.445-16.165 23.133-8.304 37.648-13.089 53.576-20.529 7.231-3.377 14.753-7.302 23.505-12.351 3.234-1.866 3.172-4.467 2.04-7.547-7.582-20.632-39.772-82.471-72.653-137.991-3.131-5.288-6.491-5.572-13.475-4.602-60.644 8.42-106.196 19.862-154.702 31.553-6.763 1.631-8.441 5.795-6.106 11.832m73.658 125.239c-17.948-42.659-25.591-62.912-48.495-113.843l-.01-.023c-.649-1.442-1.755-3.901 1.257-4.762 5.308-1.516 82.773-19.548 136.417-29.82 3.136-.601 5.164.521 7.296 4.537 18.032 33.954 37.834 70.126 50.779 99.234.416.935.615 2.015.489 2.988 2.988-.234 9.53 13.267 9.669 16.608.14 3.34-2.087 4.537-3.618 5.567-1.532 1.03-30.708 13.188-48.829 18.282.354 1.509-.245 3.038-1.535 3.654-1.52.725-3.422-.093-4.249-1.827l-2.765.603c.456 1.57-.138 3.207-1.484 3.848-1.519.725-3.422-.093-4.249-1.827l-1.304.642c.435 1.559-.16 3.173-1.495 3.81-1.519.725-3.422-.093-4.248-1.827l-3.29 1.209c.425 1.553-.171 3.158-1.5 3.792-1.52.725-3.422-.093-4.249-1.827-9.107 3.177-20.741 5.567-25.419 6.365.425 2.416-.587 4.796-2.653 5.782-2.553 1.218-5.749-.157-7.138-3.07-4.842 1.452-23.212 4.431-25.004 4.431s-3.258-.326-4.399-2.118c-.894-1.405-6.786-13.694-9.793-20.026a5 5 0 0 1-.181-.382" fill="#000"/><path d="M264.108 319.888c4.253 28.765 7.089 36.409 11.748 39.096 11.817 8.575 45.173 23.295 84.066 13.572-2.431.607-4.052 0-5.672-2.634s-63.843-150.912-65.227-155.571c-1.107-3.727.461-6.372 1.384-7.228-2.495 1.732-4.846 3.73-6.853 6.013-10.331 11.749-.608 32.208 2.431 39.298 3.038 7.089-16.408 19.851-21.877 24.713-5.47 4.861-4.254 13.977 0 42.741" fill="#000"/><path d="M370.669 364.082c-1.618-3.773-61.627-144.487-64.861-154.189-2.335-6.037-.657-10.201 6.106-11.832-4.55.84-13.729 3.661-21.507 9.062-.923.856-2.491 3.501-1.384 7.228 1.384 4.659 63.606 152.938 65.227 155.571 1.62 2.634 3.241 3.241 5.672 2.634s16.453-.154 41.256-6.863c-10.928 1.249-18.598 1.623-20.807 1.623-5.929 0-7.546 0-9.702-3.234" fill="#000"/><path d="M527.199 328.999c-15.928 7.44-30.443 12.225-53.576 20.529-26.381 9.471-54.036 14.06-72.445 16.165-24.803 6.709-38.826 6.255-41.256 6.863-38.893 9.723-72.249-4.997-84.066-13.572 3.444 16.408 14.99 41.526 16.408 43.957s5.064 3.646 8.103 2.633 84.673-31.195 104.524-29.17c21.856-7.632 64.128-20.774 92.689-29.651l.477-.148c15.915-4.946 27.466-8.536 28.653-9.051 3.318-1.44 2.76-4.452.489-8.555m-64.107 43.557c-4.79 1.823-18.295 6.279-28.626 7.292 1.823 1.621 6.563 4.821 10.939 4.659 1.561-.058 4.018-.462 6.761-1.062 6.868-1.503 15.532-4.233 16.428-5.825.71-1.262.206-3.387-.446-5.064a15 15 0 0 0-.808-1.756c-1.467.693-2.896 1.241-4.248 1.756" fill="#000"/><path d="M497.58 346.753c-28.561 8.877-70.833 22.019-92.689 29.651 6.415 1.486 21.31 4.254 29.575 3.444 10.331-1.013 23.836-5.469 28.626-7.292 1.352-.515 2.781-1.063 4.248-1.756 3.727-1.763 7.699-4.47 11.297-9.993 4.011-6.158 14.3-11.935 18.943-14.054m-29.432 25.803c.652 1.677 1.156 3.802.446 5.064-.896 1.592-9.56 4.322-16.428 5.825.629 1.084 4.307 2.815 13.989 1.062 17.81-5.065 22.797-8.505 21.688-10.537-1.393-2.551-12.397-2.88-19.695-1.414" fill="#000"/><path d="M487.843 373.97c1.109 2.032-3.878 5.472-21.688 10.537.893 1.381 3.393 4.168 6.242 4.272 3.561.13 21.457-6.372 20.287-8.931-.937-2.047-3.618-4.772-4.841-5.878" fill="#000"/><path d="M311.914 198.061c-6.763 1.631-8.441 5.795-6.106 11.832 3.234 9.702 63.243 150.416 64.861 154.189 2.156 3.234 3.773 3.234 9.702 3.234 2.209 0 9.879-.374 20.807-1.623m-89.264-167.632c48.506-11.691 94.058-23.133 154.702-31.553 6.984-.97 10.344-.686 13.475 4.602 32.881 55.52 65.071 117.359 72.653 137.991 1.132 3.08 1.194 5.681-2.04 7.547-8.752 5.049-16.274 8.974-23.505 12.351M311.914 198.061c-4.55.84-13.729 3.661-21.507 9.062m40.564 14.166c22.904 50.931 30.547 71.184 48.495 113.843m-48.495-113.843-.01-.023m.01.023-.01-.023m48.505 113.866.181.382m-.181-.382q.085.202.181.382m39.196 17.713c-4.842 1.452-23.212 4.431-25.004 4.431s-3.258-.326-4.399-2.118c-.894-1.405-6.786-13.694-9.793-20.026m39.196 17.713c1.389 2.913 4.585 4.288 7.138 3.07 2.066-.986 3.078-3.366 2.653-5.782m-9.791 2.712c-1.39-2.913-.446-6.262 2.107-7.48s5.749.157 7.139 3.07c.265.556.445 1.128.545 1.698m25.419-6.365c.827 1.734 2.729 2.552 4.249 1.827 1.329-.634 1.925-2.239 1.5-3.792m-5.749 1.965c-.827-1.734-.265-3.727 1.254-4.452 1.52-.724 3.422.094 4.249 1.828q.154.325.246.659m-5.749 1.965c-9.107 3.177-20.741 5.567-25.419 6.365m34.457-9.539c.827 1.734 2.73 2.552 4.249 1.827 1.335-.637 1.93-2.251 1.495-3.81m-5.744 1.983c-.826-1.734-.265-3.727 1.255-4.452 1.519-.724 3.421.094 4.248 1.827q.151.317.241.642m-5.744 1.983-3.289 1.209m10.337-3.834c.827 1.734 2.73 2.552 4.249 1.827 1.346-.641 1.94-2.278 1.484-3.848m-5.733 2.021c-.827-1.734-.265-3.727 1.255-4.451 1.519-.725 3.421.093 4.248 1.827q.142.298.23.603m-5.733 2.021-1.304.642m9.802-3.266c.827 1.734 2.729 2.552 4.249 1.827 1.29-.616 1.889-2.145 1.535-3.654m-5.784 1.827c-.827-1.734-.265-3.727 1.254-4.452s3.422.093 4.249 1.827q.187.394.281.798m-5.784 1.827-2.765.603m51.327-42.887c-.157 1.215-.82 2.262-2.2 2.644-14.105 3.907-87.14 24.397-138.763 40.261-3.589 1.103-5.57 1.068-6.589-.834m147.552-42.071c.126-.973-.073-2.053-.489-2.988-12.945-29.108-32.747-65.28-50.779-99.234-2.132-4.016-4.16-5.138-7.296-4.537-53.644 10.272-131.109 28.304-136.417 29.82-3.012.861-1.906 3.32-1.257 4.762m196.238 72.177c2.988-.234 9.53 13.267 9.669 16.608.14 3.34-2.087 4.537-3.618 5.567-1.532 1.03-30.708 13.188-48.829 18.282m42.778-4.901c-15.928 7.44-30.443 12.225-53.576 20.529-26.381 9.471-54.036 14.06-72.445 16.165m126.021-36.694c2.271 4.103 2.829 7.115-.489 8.555-1.187.515-12.738 4.105-28.653 9.051m-93.166 29.799c-19.851-2.025-101.486 28.157-104.524 29.17-3.039 1.013-6.685-.203-8.103-2.633s-12.964-27.549-16.408-43.957m129.035 17.42c21.856-7.632 64.128-20.774 92.689-29.651m-92.689 29.651c6.415 1.486 21.31 4.254 29.575 3.444m-158.61-20.864c-4.659-2.687-7.495-10.331-11.748-39.096-4.254-28.764-5.47-37.88 0-42.741 5.469-4.862 24.915-17.624 21.877-24.713s-12.762-27.549-2.431-39.298c2.007-2.283 4.358-4.281 6.853-6.013m-14.551 151.861c11.817 8.575 45.173 23.295 84.066 13.572m-69.515-165.433c-.923.856-2.491 3.501-1.384 7.228 1.384 4.659 63.606 152.938 65.227 155.571 1.62 2.634 3.241 3.241 5.672 2.634m0 0c2.43-.608 16.453-.154 41.256-6.863m96.402-18.94c-4.643 2.119-14.932 7.896-18.943 14.054-3.598 5.523-7.57 8.23-11.297 9.993m30.24-24.047.477-.148m-.477.148.477-.148m-63.591 33.243c10.331-1.013 23.836-5.469 28.625-7.292 1.353-.515 2.782-1.063 4.249-1.756m-32.874 9.048c1.823 1.621 6.563 4.821 10.939 4.659 1.561-.058 4.018-.462 6.761-1.062M467.34 370.8c.245.447.539 1.063.808 1.756m0 0c.652 1.677 1.156 3.802.446 5.064-.896 1.592-9.56 4.322-16.428 5.825m15.982-10.889c7.298-1.466 18.302-1.137 19.695 1.414m-21.688 10.537c-9.682 1.753-13.36.022-13.989-1.062m13.989 1.062c17.81-5.065 22.797-8.505 21.688-10.537m-21.688 10.537c.893 1.381 3.393 4.168 6.242 4.272 3.561.13 21.457-6.372 20.287-8.931-.937-2.047-3.618-4.772-4.841-5.878" stroke="#fff"/><path d="M282.17 368.29c7.488 3.024 25.963 9.546 39.959 11.447m-37.799-6.48c7.488 3.024 25.962 9.547 39.958 11.448m-32.234 8.851c2.72 1.099 6.892 2.66 11.772 4.293m-14.96-14.224c7.488 3.024 25.962 9.547 39.958 11.447m-42.334-16.708c7.488 3.024 25.962 9.547 39.958 11.447m-35.678-1.105c7.487 3.024 25.962 9.547 39.958 11.447" stroke="#fff" stroke-miterlimit="6.407" stroke-dasharray="1 1"/><path fill-rule="evenodd" clip-rule="evenodd" d="M569.521 570.61c-1.924-63.653-6.274-101.719-15.739-160.359-1.278-7.917-5.761-12.247-17.583-14.653-48.353-9.838-125.174-20.722-191.612-23.74a39 39 0 0 0-1.451-.048c-7.639.093-8.366 5.941-8.289 8.885.082 3.121 6.951 171.38 12.074 229.84.628 7.169 6.055 8.382 11.388 7.715 1.454-.182 11.569-1.491 27.16-3.261 8.918-1.012 19.61-2.301 31.46-3.883 14.021-1.873 29.661-4.157 45.902-6.882q4.582-.77 9.219-1.585a1033 1033 0 0 0 21.367-3.987c24.518-4.853 48.967-10.71 70.052-17.67 5.338-1.762 6.217-4.926 6.052-10.372M356.52 401.265c-.315-4.574 2.174-8.019 7.025-8.019 65.867 1.597 108.548 7.634 171.36 17.355 7.976 1.234 9.565 2.344 10.453 6.889 6.202 31.723 12.458 87.762 14.17 137.875.131 3.823-.703 5.978-6.107 7.658-43.748 13.606-172.443 25.624-177.258 25.833s-8.241-1.712-8.582-8.373c1.848-55.249-8.22-149.467-10.598-173.945l-.146-1.489c-.172-1.753-.189-1.926-.317-3.784" fill="#000"/><path d="M346.921 610.535c-5.123-58.46-11.992-226.719-12.074-229.84-.077-2.944.65-8.792 8.289-8.885-8.573-.129-16.521 2.389-19.103 5.064-6.567 11.559 4.6 223.59 10.988 242.595 1.142.746 8.194.488 14.448-.169 3.64-.382 7.064-.517 8.84-1.05-5.333.667-10.76-.546-11.388-7.715" fill="#000"/><path d="M315.242 593.5c1.062 1.99 13.531 17.952 19.779 25.969-6.388-19.005-17.555-231.036-10.988-242.595-2.429 2.518-11.776 18.577-13.767 22.724s-4.146 6.967-3.981 11.777c.055 1.591.855 20.684 1.906 45.669 1.496 35.561 3.502 83.057 4.598 109.008l.192 4.548.603 14.275c.166 3.981.331 6.137 1.658 8.625" fill="#000"/><path d="M308.191 457.044c-2.441 3.021-7.677 9.817-9.093 12.826-.332 4.647 1.886 82.742 2.415 86.971.528 4.23 4.787 7.958 11.468 13.759l-.192-4.548c-1.096-25.951-3.102-73.447-4.598-109.008m154.64 147.18c-12.619 9.43-35.859 8.517-45.902 6.882a1614 1614 0 0 1-31.46 3.883c57.364 30.839 99.126 0 86.581-12.35q-4.637.816-9.219 1.585" fill="#000"/><path d="M416.929 611.106c14.021-1.873 29.661-4.157 45.902-6.882-12.619 9.43-35.859 8.517-45.902 6.882" fill="#000"/><path d="M385.469 614.989c-15.591 1.77-25.706 3.079-27.16 3.261 6.284 7.969 16.932 21.431 29.933 33.318 2.21 2.021 5.891 1.854 8.548 1.619 52.803-4.676 92.935-14.122 125.69-36.786-11.121-8.761-20.08-13.598-29.063-17.749a1033 1033 0 0 1-21.367 3.987c12.545 12.35-29.217 43.189-86.581 12.35" fill="#000"/><path d="M388.242 651.568c-13.001-11.887-23.649-25.349-29.933-33.318-1.776.533-5.2.668-8.84 1.05 8.443 9.43 27.464 29.876 36 36.219 4.501 3.877 7.321 3.524 15.955 2.291s66.764-6.096 122.27-36.228c.705-1.409-.431-4.569-1.214-5.181-32.755 22.664-72.887 32.11-125.69 36.786-2.657.235-6.338.402-8.548-1.619" fill="#000"/><path fill-rule="evenodd" clip-rule="evenodd" d="M363.545 393.246c-4.851 0-7.34 3.445-7.025 8.019.128 1.858.145 2.031.317 3.784l.146 1.489c42.187-1.066 135.314 2.493 175.198 15.331 6.673 18.617 17.841 83.604 12.904 133.496-12.904 9.556-106.393 22.013-177.504 25.118.341 6.661 3.768 8.582 8.582 8.373s133.51-12.227 177.258-25.833c5.404-1.68 6.238-3.835 6.107-7.658-1.712-50.113-7.968-106.152-14.17-137.875-.888-4.545-2.477-5.655-10.453-6.889-62.812-9.721-105.493-15.758-171.36-17.355" fill="#000"/><path d="M344.587 371.858c66.438 3.018 143.259 13.902 191.612 23.74 11.822 2.406 16.305 6.736 17.583 14.653 9.465 58.64 13.815 96.706 15.739 160.359.165 5.446-.714 8.61-6.052 10.372-21.085 6.96-45.534 12.817-70.052 17.67m-148.83-226.794a39 39 0 0 0-1.451-.048m1.451.048a17 17 0 0 0-1.451-.048m15.173 246.44c-5.333.667-10.76-.546-11.388-7.715-5.123-58.46-11.992-226.719-12.074-229.84-.077-2.944.65-8.792 8.289-8.885m15.173 246.44c1.454-.182 11.569-1.491 27.16-3.261m-27.16 3.261c6.284 7.969 16.932 21.431 29.933 33.318 2.21 2.021 5.891 1.854 8.548 1.619 52.803-4.676 92.935-14.122 125.69-36.786m-164.171 1.849c-1.776.533-5.2.668-8.84 1.05m-14.448.169c-6.248-8.017-18.717-23.979-19.779-25.969-1.327-2.488-1.492-4.644-1.658-8.625l-.603-14.275m22.04 48.869c-6.388-19.005-17.555-231.036-10.988-242.595m10.988 242.595c1.142.746 8.194.488 14.448-.169m-25.436-242.426c-2.429 2.518-11.776 18.577-13.767 22.724s-4.146 6.967-3.981 11.777c.055 1.591.855 20.684 1.906 45.669m15.842-80.17c2.582-2.675 10.53-5.193 19.103-5.064m-34.945 85.234c-2.441 3.021-7.677 9.817-9.093 12.826-.332 4.647 1.886 82.742 2.415 86.971.528 4.23 4.787 7.958 11.468 13.759m-4.79-113.556c1.496 35.561 3.502 83.057 4.598 109.008m.192 4.548-.192-4.548m.192 4.548-.192-4.548m104.14 45.054c14.021-1.873 29.661-4.157 45.902-6.882m-45.902 6.882c10.043 1.635 33.283 2.548 45.902-6.882m-45.902 6.882a1614 1614 0 0 1-31.46 3.883m77.362-10.765q4.582-.77 9.219-1.585m0 0c12.545 12.35-29.217 43.189-86.581 12.35m86.581-12.35a1033 1033 0 0 0 21.367-3.987m29.063 17.749c-11.121-8.761-20.08-13.598-29.063-17.749m29.063 17.749c.783.612 1.919 3.772 1.214 5.181-55.506 30.132-113.636 34.994-122.27 36.228-8.634 1.233-11.454 1.586-15.955-2.291-8.536-6.343-27.557-26.789-36-36.219m18.112-38.817c.341 6.661 3.768 8.582 8.582 8.373s133.51-12.227 177.258-25.833c5.404-1.68 6.238-3.835 6.107-7.658-1.712-50.113-7.968-106.152-14.17-137.875-.888-4.545-2.477-5.655-10.453-6.889-62.812-9.721-105.493-15.758-171.36-17.355-4.851 0-7.34 3.445-7.025 8.019.128 1.858.145 2.031.317 3.784l.146 1.489m10.598 173.945c1.848-55.249-8.22-149.467-10.598-173.945m10.598 173.945c71.111-3.105 164.6-15.562 177.504-25.118 4.937-49.892-6.231-114.879-12.904-133.496-39.884-12.838-133.011-16.397-175.198-15.331" stroke="#fff"/></svg>