<svg xmlns="http://www.w3.org/2000/svg" width="90" height="89" viewBox="0 0 90 89"><path stroke="#fff" fill-rule="evenodd" clip-rule="evenodd" d="M.81.974v60.959L46.9 87.952l41.631-26.02V.975zm5.204 11.894h6.69v8.74l-6.037 6.038L9.821 30.8l7.344-7.344V12.87h5.947v11.714l-7.524 7.524 3.154 3.154 8.83-8.831V8.408H6.014zm36.426-4.46H31.29V35.17h4.46V12.868h6.69zm8.178 0v30.985l-8.198 7.514 3.014 3.289 7.347-6.735 6.667 6.668 3.154-3.154-7.524-7.525V8.408zm21.558 41.63V8.408h-4.46V32.94h-6.69v4.46h6.69v12.638zm8.178 7.215V8.408h-4.46v46.31L46.838 72.012 14.191 54.646v-4.608h22.302V38.144H9.731v4.46h22.302v2.974H9.73v11.747L46.962 77.13z"/></svg>