<svg width="623" height="72" viewBox="0 0 623 72" fill="none" xmlns="http://www.w3.org/2000/svg"><path fill-rule="evenodd" clip-rule="evenodd" d="M572.802 61.683c-5.144-6.194-8.072-15.055-8.072-25.805s2.928-19.482 8.079-25.544C577.972 4.257 585.301.948 593.9.948c8.557 0 15.863 3.335 21.013 9.422 5.138 6.071 8.067 14.802 8.067 25.508 0 10.75-2.928 19.61-8.06 25.804-5.146 6.21-12.451 9.666-21.02 9.666-8.613 0-15.941-3.455-21.098-9.665m34.52-6.672c3.273-4.496 5.198-11.043 5.198-19.133s-1.925-14.519-5.191-18.898c-3.246-4.353-7.855-6.742-13.429-6.742-5.621 0-10.23 2.39-13.463 6.74-3.255 4.38-5.157 10.808-5.157 18.9s1.903 14.639 5.164 19.134c3.241 4.467 7.851 6.956 13.456 6.956 5.557 0 10.169-2.488 13.422-6.957M565.73 35.878c0 21.15 11.52 34.47 28.17 34.47 16.56 0 28.08-13.32 28.08-34.47 0-21.06-11.52-33.93-28.08-33.93-16.65 0-28.17 12.78-28.17 33.93m47.79 0c0 16.47-7.83 27.09-19.62 27.09-11.88 0-19.62-10.62-19.62-27.09s7.74-26.64 19.62-26.64c11.79 0 19.62 10.17 19.62 26.64m-88.378 33.21h8.37V3.118h-8.37zm-1 1V2.118h10.37v67.97zm-65.867-1h37.17v-7.02h-28.8V3.118h-8.37zm9.37-8.02V2.118h-10.37v67.97h39.17v-9.02zm-90.875.615c-5.144-6.194-8.072-15.055-8.072-25.805s2.929-19.482 8.08-25.544c5.163-6.077 12.491-9.386 21.09-9.386 8.558 0 15.863 3.335 21.014 9.422 5.138 6.071 8.066 14.802 8.066 25.508 0 10.75-2.928 19.61-8.06 25.804-5.145 6.21-12.45 9.666-21.02 9.666-8.612 0-15.94-3.455-21.098-9.665m34.521-6.672c3.273-4.496 5.197-11.043 5.197-19.133s-1.924-14.519-5.19-18.898c-3.246-4.353-7.856-6.742-13.43-6.742-5.62 0-10.229 2.39-13.462 6.74-3.255 4.38-5.158 10.808-5.158 18.9s1.903 14.639 5.165 19.134c3.241 4.467 7.851 6.956 13.455 6.956 5.558 0 10.17-2.488 13.423-6.957m-41.593-19.133c0 21.15 11.52 34.47 28.17 34.47 16.56 0 28.08-13.32 28.08-34.47 0-21.06-11.52-33.93-28.08-33.93-16.65 0-28.17 12.78-28.17 33.93m47.79 0c0 16.47-7.83 27.09-19.62 27.09-11.88 0-19.62-10.62-19.62-27.09s7.74-26.64 19.62-26.64c11.79 0 19.62 10.17 19.62 26.64m-110.437 33.21h8.37v-29.61h25.11v-6.93h-25.11v-22.41h29.61v-7.02h-37.98zm9.37-57.95h29.61v-9.02h-39.98v67.97h10.37v-29.61h25.11v-8.93h-25.11zm-67.567 57.95h8.46v-58.95h19.89v-7.02h-48.24v7.02h19.89zm-1-57.95v58.95h10.46v-58.95h19.89v-9.02h-50.24v9.02zm-86.227 57.95h8.37v-27.9h11.909l15.991 27.9h9.36L190.41 40.283q.509-.123 1.004-.263c8.411-2.377 13.863-8.408 13.863-18.362 0-13.68-9.63-18.54-23.04-18.54h-20.61zm24.564-35.068a21 21 0 0 0 1.521-.331c6.033-1.56 9.285-5.557 9.285-12.031 0-8.64-5.67-11.7-15.93-11.7h-11.07v24.48h11.07c1.861 0 3.572-.14 5.124-.418m-15.194-.582h10.07c5.016 0 8.741-1.038 11.194-2.97 2.41-1.898 3.736-4.774 3.736-8.81 0-4.075-1.318-6.65-3.682-8.264-2.446-1.672-6.177-2.436-11.248-2.436h-10.07zm20.938 7.472c2.83-.828 5.353-2.067 7.471-3.741 4.352-3.441 6.871-8.628 6.871-15.511 0-7.105-2.519-12.069-6.909-15.213-4.329-3.1-10.335-4.327-17.131-4.327h-21.61v67.97h10.37v-27.9h10.33l15.99 27.9H209zM80.122 61.683c-5.144-6.194-8.072-15.055-8.072-25.805s2.928-19.482 8.08-25.544C85.292 4.257 92.62.948 101.22.948c8.558 0 15.863 3.335 21.013 9.422 5.138 6.071 8.067 14.802 8.067 25.508 0 10.75-2.928 19.61-8.06 25.804-5.145 6.21-12.451 9.666-21.02 9.666-8.613 0-15.94-3.455-21.098-9.665m34.521-6.672c3.273-4.496 5.197-11.043 5.197-19.133s-1.924-14.519-5.19-18.898c-3.246-4.353-7.856-6.742-13.43-6.742-5.62 0-10.23 2.39-13.463 6.74-3.254 4.38-5.157 10.808-5.157 18.9s1.903 14.639 5.164 19.134c3.241 4.467 7.851 6.956 13.456 6.956 5.558 0 10.169-2.488 13.423-6.957M73.05 35.878c0 21.15 11.52 34.47 28.17 34.47 16.56 0 28.08-13.32 28.08-34.47 0-21.06-11.52-33.93-28.08-33.93-16.65 0-28.17 12.78-28.17 33.93m47.79 0c0 16.47-7.83 27.09-19.62 27.09-11.88 0-19.62-10.62-19.62-27.09s7.74-26.64 19.62-26.64c11.79 0 19.62 10.17 19.62 26.64M1.877 69.088h8.37v-26.19h10.8c14.49 0 24.39-6.48 24.39-20.34 0-14.49-9.99-19.44-24.75-19.44H1.877zm9.37-25.19h9.8c7.375 0 13.72-1.647 18.245-5.185 4.561-3.568 7.145-8.962 7.145-16.155 0-7.504-2.606-12.7-7.266-15.972-4.59-3.224-11.026-4.468-18.484-4.468H.877v67.97h10.37zm8.81-7.75h-9.81V9.958h9.36c11.7 0 17.55 2.97 17.55 12.6 0 9.36-5.58 13.59-17.1 13.59m-8.81-25.19h8.36c5.816 0 9.944.749 12.608 2.521 2.563 1.706 3.942 4.485 3.942 9.079 0 4.472-1.323 7.535-3.848 9.519-2.576 2.024-6.582 3.071-12.252 3.071h-8.81z" fill="#fff"/></svg>