<svg xmlns="http://www.w3.org/2000/svg" width="891" height="517" viewBox="0 0 891 517" fill="none"><path d="M257.382-33.97c0 195.424 112.651 374.888 187.769-9.191m-170.43 9.191c31.148 43.66 111.071 102.942 181.58-9.19-.354 25.662 7.857 76.986 43.536 76.986s44.245-51.324 44.068-76.986M302.86-33.97c-2.654 93.28 125.301 236.101 129.549-9.191m205.722 5.505c47.71 242.528 172.95 622.885 178.914 7.952m-127.228 0c-13.915 276.985 200.119 461.2 200.119 7.289M1.33-26.391c-1.988 147.107 27.17 298.19 88.795 298.19s78.192-103.373 78.192-298.19m-78.192 0c13.915 65.602 87.469 186.203 155.721 0m-162.276 0c2.752 133.582 12.386 429.235 28.901 543.188M840.159-33.97c-.344 72.458-2.064 246.893-6.193 364.974" stroke="#fff"/></svg>