<svg width="726" height="645" viewBox="0 0 726 645" fill="none" xmlns="http://www.w3.org/2000/svg"><path d="M528.049 90.903c1.33 33.605 33.7 72.332 17.211 172.107-3.496 3.496-5.561-.386-6.02-2.611 5.092-24.342 9.988-76.174-11.522-142.934-12.122-30.212-4.638-54.477 12.17-61.427 6.824-15.943 24.183-21.791 41.865-14.39 1.402 4.22-1.752 5.274-3.505 5.274-7.674-3.613-22.25-3.64-29.708 7.162 5.01-.303 10.527.656 16.378 3.07 1.403 4.219-1.752 5.274-3.504 5.274-3.168-1.552-9.798-2.538-16.322-.734-1.099 4.052-1.507 8.963-.963 14.867 3.132 34.025 38.758 86.143 14.557 189.06-3.496 3.496-5.561-.386-6.02-2.611 6.66-22.744 16.991-93.066-10.676-165.876-4.66-12.262-5.916-22.893-4.69-31.61-5.623 4.338-9.775 12.131-9.251 25.38m-39.107 219.181c-14.362-2.756-29.739-3.917-35.251-4.932-4.501 1.707-10.552.711-13.015 0-1.776-1.637-4.262-6.148 0-11.097 3.808-1.133 12.121-1.687 14.905 5.173 16.736 2.018 31.584 4.779 36.988 5.924-.629.677-2.234 2.611-3.627 4.932M324.85 427.704c-4.061-23.239-1.014-58.003 1.336-72.48-.658-.564-3.207-1.354-6.366 0-5.03 31.52-3.641 58.635-1.293 72.48 19.742 18.895 51.393 7.897 58.726 6.486 11.651-31.004 19.457-78.778 22.09-98.426-.376-1.128-2.764-2.707-6.374 0-2.201 20.752-12.836 73.592-21.759 96.649-13.255 3.103-40.268 6.572-46.36-4.709m98.962 11.489 1.846-61.611h6.232c-.65 35.373-1.715 90.618-2.619 136.102 10.07-12.716 26.502-43.418 28.94-86.417 0-29.1 5.915-20.202 6.478-11.397.374 5.853.49 33.892-12.307 68.042-7.716 20.59-19.076 36.205-23.303 39.421-.694 34.705-1.261 61.988-1.419 67.236-.466 15.46.525 41.369-15.919 43.163s-24.392-17.279-26.425-21.225c-2.032-3.946-2.929-14.051 2.033-10.822 10.583 22.241 15.21 27.061 24.392 25.55 9.011-1.483 9.291-17.069 9.408-23.582l.007-.362c.05-2.724.593-35.294 1.206-72.928-6.883 8.392-23.201 17.406-31.408 20.872-1.029-.605-2.721-3.171-1.268-6.513 14.778-5.81 27.564-16.977 32.818-23.087.477-29.345.976-60.551 1.308-82.442M321.88 183.675c5.461-68.696.592-164.218-2.42-203.523h6.827c3.968 49.543 4.839 148.241 2.923 201.367-1.056 1.056-5.359 2.719-7.33 2.156M.81 1.064 7.034-.191c3.677 17.989 67.395 193.67 86.816 239.103 22.006 51.479 53.604 119.594 92.275 185.6 30.259 51.647 59.183 86.516 69.836 99.111 1.28 2.105 2.932 6.81-.705 8.794-69.131-76.822-126.777-203.991-157.438-269.407C73.653 211.452 20.405 69.52.81 1.064" fill="#000"/><path d="M548.54 54.084c7.458-10.802 22.034-10.775 29.708-7.162 1.753 0 4.907-1.054 3.505-5.274-17.682-7.401-35.041-1.553-41.865 14.39m8.652-1.954c5.01-.303 10.527.656 16.378 3.07 1.403 4.219-1.752 5.274-3.504 5.274-3.168-1.552-9.798-2.538-16.322-.734m3.448-7.61c-3.091.186-5.988.853-8.652 1.954m0 0c-16.808 6.95-24.292 31.215-12.17 61.427 21.51 66.76 16.614 118.592 11.522 142.934.459 2.225 2.524 6.107 6.02 2.611 16.489-99.775-15.881-138.502-17.211-172.107-.524-13.248 3.628-21.04 9.251-25.378m7.792-3.83c-1.099 4.051-1.507 8.962-.963 14.866 3.132 34.025 38.758 86.143 14.557 189.06-3.496 3.496-5.561-.386-6.02-2.611 6.66-22.744 16.991-93.066-10.676-165.876-4.66-12.262-5.916-22.893-4.69-31.61m7.792-3.83c-2.7.747-5.381 1.971-7.792 3.83m-83.609 239.629c-.834-2.785.347-5.178 1.041-6.026l.849.102m-1.89 5.924c5.512 1.015 20.889 2.176 35.251 4.932 1.393-2.321 2.998-4.255 3.627-4.932-5.404-1.145-20.252-3.906-36.988-5.924m-1.89 5.924c-4.501 1.707-10.552.711-13.015 0-1.776-1.637-4.262-6.148 0-11.097 3.808-1.133 12.121-1.687 14.905 5.173m-33.077 222.406c.477-29.345.976-60.551 1.308-82.442l1.846-61.611h6.232c-.651 35.373-1.715 90.618-2.619 136.102m-6.767 7.951c-5.254 6.11-18.04 17.276-32.818 23.087-1.453 3.342.239 5.908 1.268 6.513 8.207-3.466 24.525-12.48 31.408-20.872m.142-8.728-.142 8.728m0 0c-.613 37.634-1.156 70.204-1.206 72.928-.116 6.277-.232 22.433-9.415 23.944s-13.809-3.309-24.392-25.55c-4.962-3.229-4.065 6.876-2.033 10.822s9.981 23.018 26.425 21.225c16.444-1.794 15.453-27.703 15.919-43.163.158-5.248.726-32.531 1.419-67.236m.192-9.649c10.07-12.716 26.502-43.418 28.94-86.417 0-29.1 5.915-20.202 6.478-11.397.374 5.853.49 33.892-12.307 68.042-7.716 20.59-19.076 36.205-23.303 39.421m.192-9.649-.192 9.649M326.186 355.224c-2.35 14.477-5.397 49.241-1.336 72.48 6.092 11.281 33.105 7.812 46.36 4.709 8.923-23.057 19.558-75.897 21.759-96.649 3.61-2.707 5.998-1.128 6.374 0-2.633 19.648-10.439 67.422-22.09 98.426-7.333 1.411-38.984 12.409-58.726-6.486-2.348-13.845-3.737-40.96 1.293-72.48 3.159-1.354 5.708-.564 6.366 0ZM319.46-19.848c3.012 39.305 7.881 134.827 2.42 203.523 1.971.563 6.274-1.1 7.33-2.156 1.916-53.126 1.045-151.824-2.923-201.367zM7.034-.191.81 1.064C20.405 69.52 73.653 211.452 97.818 263.01c30.661 65.416 88.307 192.585 157.438 269.407 3.637-1.984 1.985-6.689.705-8.794-10.653-12.595-39.577-47.464-69.836-99.111-38.671-66.006-70.269-134.121-92.275-185.6C74.43 193.479 10.711 17.798 7.034-.191Z" stroke="#fff"/><path d="M328.601-22.65h176.461l-16.998 128.83-1.199 9.086-9.21 69.8h-31.946l-8.901 192.648h-15.233v-3.171h-1.982v-5.747l-4.557 2.973 1.981-5.351h-1.981v-3.93l-2.973 2.741v-5.747l-7.332 9.314 1.763-6.308L393.7 185.065h-17.644l-2.582-13.024-16.629 2.109-8.451-58.885-1.304-9.086z" fill="#000"/><path d="M348.394 115.265c28.391-9.643 110.99-9.536 138.471 0m-138.471 0-1.304-9.086m1.304 9.086 8.451 58.885 16.629-2.109 2.582 13.024H393.7m93.165-69.8-9.21 69.8h-31.946m41.156-69.8 1.199-9.086m-140.974 0L328.601-22.65h176.461l-16.998 128.83m-140.974 0c25.746-9.104 112.917-9.087 140.974 0M393.7 185.065l12.794 177.422-1.763 6.308 7.332-9.314v5.747l2.973-2.741v3.93h1.981l-1.981 5.351 4.557-2.973v5.747h1.982v3.171h15.233l8.901-192.648m-52.009 0h52.009" stroke="#fff"/><path d="M453.372 265.111c-6.039-1.242-20.181-4.368-28.443-6.942-.85-4.755-.945-8.768-.488-12.142 1.876-13.825 13.041-16.923 19.619-16.469 5.023 2.144 17.167 7.415 25.564 11.343-13.465-.954-18.543 5.139-18.599 13.259-.023 3.416.843 7.191 2.347 10.951" fill="#000"/><path d="M454.726 258.169c-2.573-11.648 7.054-14.672 12.19-14.729 9.727 7.685 17.092 17.933 21.796 30.554a85 85 0 0 1 1.426 4.157c6.65 21.153 6.308 48.413-2.273 80.985-6.088 23.105-15.638 47.83-30.324 68.731a149 149 0 0 1-3.227 4.419c-20.174 26.577-49.333 45.95-91.22 45.95-51.413 0-77.311-49.628-87.119-86.112a175 175 0 0 1-.972-3.781c-1.311-5.355-2.264-10.36-2.891-14.801l18.46-5.274a195 195 0 0 0 2.643 14.833q.428 1.952.891 3.857c18.293 75.311 76.908 95.785 130.823 49.875 5.201-4.428 10.01-9.549 14.425-15.194a128 128 0 0 0 2.575-3.411c28.121-38.601 38.972-98.534 31.401-130.745a61 61 0 0 0-1.173-4.3c-1.595-5.074-3.735-9.262-6.427-12.316-2.991-2.935-9.379-9.583-11.004-12.698" fill="#000"/><path d="M275.003 388.343c-1.311-5.355-2.264-10.36-2.891-14.801l18.46-5.274a195 195 0 0 0 2.643 14.833m-18.212 5.242c3.699-2.147 12.52-6.202 18.212-5.242m-18.212 5.242q.457 1.864.972 3.781m17.24-9.023q.428 1.952.891 3.857m-18.131 5.166c9.808 36.484 35.706 86.112 87.119 86.112 41.887 0 71.046-19.373 91.22-45.95m-178.339-40.162c3.494-2.261 13.993-6.552 18.131-5.166m0 0c18.293 75.311 76.908 95.785 130.823 49.875 5.201-4.428 10.01-9.549 14.425-15.194m0 0c4.934 1.555 12.348 4.396 14.96 10.647m-14.96-10.647a128 128 0 0 0 2.575-3.411m12.385 14.058a149 149 0 0 0 3.227-4.419m-15.612-9.639c5.97.272 13.882 6.549 15.612 9.639m-15.612-9.639c28.121-38.601 38.972-98.534 31.401-130.745m-15.789 140.384c14.686-20.901 24.236-45.626 30.324-68.731 8.581-32.572 8.923-59.832 2.273-80.985m-17.981 5.032c-1.595-5.074-3.735-9.262-6.427-12.316-2.991-2.935-9.379-9.583-11.004-12.698-2.573-11.648 7.054-14.672 12.19-14.729 9.727 7.685 17.092 17.933 21.795 30.554m-16.554 9.189c1.891-4.574 12.328-10.212 16.554-9.189m-16.554 9.189a61 61 0 0 1 1.173 4.3m15.381-13.489a84 84 0 0 1 1.427 4.157m-16.808 9.332c1.761-4.3 12.037-11.18 16.808-9.332m-65.697-32.124c1.876-13.825 13.041-16.923 19.619-16.469 5.023 2.144 17.167 7.415 25.564 11.343-13.465-.954-18.543 5.139-18.599 13.259m-26.584-8.133c-.457 3.374-.362 7.387.488 12.142 8.262 2.574 22.404 5.7 28.443 6.942-1.504-3.76-2.37-7.535-2.347-10.951m-26.584-8.133 26.584 8.133" stroke="#fff"/><path d="M723.04-23.193C656.135 56.092 519.637 216.06 513.782 224.073l-7.134-4.352c-27.127 50.534-69.282 74.237-99.791 77.072-3.913 1.171-11.674-17.555-3.913-18.585 42.084-2.261 75.899-46.438 87.546-68.244-3.161-1.843-6.03-3.448-8.232-4.549L608.62-23.193z" fill="#000"/><path d="M490.49 209.964c-3.161-1.843-6.03-3.448-8.232-4.549L608.62-23.193h114.42C656.135 56.092 519.637 216.06 513.782 224.073l-7.134-4.352m-16.158-9.757c-11.647 21.806-45.462 65.983-87.546 68.244-7.761 1.03 0 19.756 3.913 18.585 30.509-2.835 72.664-26.538 99.791-77.072m-16.158-9.757c5.154 3.006 11.083 6.644 16.158 9.757" stroke="#fff"/><path d="M549.671 162.65c-4.438-13.462 8.686-19.531 13.281-15.976 3.206 2.481 8.484 7.069 13.433 11.381l.608.53c3.148 2.743 6.12 5.333 8.286 7.145.989 1.841 1.433 3.583 1.455 5.14 16.695 14.709 11.666 48.889 2.01 74.162-10.828 28.338-41.787 73.254-93.807 82.22-35.84 6.177-74.485-4.779-85.585-11.195v-5.469c32.19 12.664 110.169 32.749 159.181-40.919 30.041-45.152 25.456-82.387 15.544-93.063-1.868 1.367-4.486 1.64-7.074.288a18933 18933 0 0 0-27.332-14.244" fill="#000"/><path d="M577.003 176.894c-2.096-1.095-5.899-3.08-10.585-5.523m10.585 5.523c-3.454-8.202 1.299-13.35 8.276-11.164m-8.276 11.164c2.588 1.352 5.206 1.079 7.074-.288m1.202-10.876c-2.305-1.929-5.523-4.738-8.894-7.675m8.894 7.675c.989 1.841 1.433 3.583 1.455 5.14m-10.349-12.815c-4.949-4.312-10.227-8.9-13.433-11.381-4.595-3.555-17.719 2.514-13.281 15.976 5.918 3.078 11.82 6.152 16.747 8.721m9.967-13.316c-3.983-.246-11.553 2.072-9.967 13.316m20.316-.501c16.695 14.709 11.666 48.889 2.01 74.162-10.828 28.338-41.787 73.254-93.807 82.22-35.84 6.177-74.485-4.779-85.585-11.195v-5.469c32.19 12.664 110.169 32.749 159.181-40.919 30.041-45.152 25.456-82.387 15.544-93.063m2.657-5.736a26 26 0 0 0-2.362-1.847c-2.411-1.67-5.443.735-3.994 4.938 1.275.489 2.525 1.381 3.699 2.645" stroke="#fff"/><path d="m343.738 350.573 18.307-5.881c1.411 14.764 3.771 36.511 8.202 59.831q.243 1.283.496 2.572c6.809 34.798 18.276 72.627 38.075 95.751a86 86 0 0 0 1.603 1.819c7.036 7.759 15.09 13.685 24.317 17.034 22.897 8.309 40.18 6.996 53.194 0-20.401-6.082-38.596-20.681-54.374-39.433a216 216 0 0 1-1.995-2.409c-11.908-14.603-22.397-31.527-31.373-48.818q-.512-.986-1.017-1.973c-15.797-30.875-26.773-62.687-32.392-84.374l17.561-6.472c8.451 30.745 20.237 59.954 33.125 83.187q.633 1.278 1.274 2.547c8.737 17.304 18.41 33.077 29.3 46.196a161 161 0 0 0 1.89 2.235c15.524 18.028 33.491 30.671 54.684 34.797 11.359-14.778 17.039-35.388 19.716-53.983q.233-1.62.436-3.216a217 217 0 0 0 1.718-26.91c3.648.566 12.49 3.39 18.676 10.156a216 216 0 0 1-1.575 19.278 202 202 0 0 1-.455 3.348c-2.504 17.335-7.321 34.68-15.259 49.45a35 35 0 0 0 3.603-1.049q1.05-.361 2.223-.823c7.658-3.02 19.139-9.335 32.229-20.361q1.247-1.049 2.511-2.155c7.632-6.681 15.749-14.945 23.931-25.062 9.04 3.191 15.279 6.689 17.268 8.039-5.994 8.565-16.279 20.658-29.286 31.886q-1.201 1.037-2.434 2.064c-11.177 9.307-24.197 17.817-38.137 22.942q-1.294.477-2.598.913c-7.867 2.629-16.003 4.148-24.248 4.102a72 72 0 0 1-4.53 4.171c-16.94 14.286-40.791 20.527-73.666 11.97-14.612-3.803-27.074-12.52-37.653-24.401a107 107 0 0 1-1.778-2.047c-22.223-26.226-35.861-66.538-43.54-103.708a395 395 0 0 1-.634-3.129c-4.331-21.797-6.616-42.335-7.395-58.084" fill="#000"/><path d="M495.707 516.471c3.466 1.594 10.859 6.526 12.697 13.501m-12.697-13.501a52 52 0 0 0 2.332-2.037m-2.332 2.037a48 48 0 0 1-7.775 5.228m20.472 8.273c-16.94 14.286-40.791 20.527-73.666 11.97-14.612-3.803-27.074-12.52-37.653-24.401m111.319 12.431a70 70 0 0 0 2.541-2.25m-12.906-13.288c3.027 1.29 9.847 5.752 12.906 13.288m-12.906-13.288a58.4 58.4 0 0 0 6.576-7.252m6.33 20.54a72 72 0 0 0 1.989-1.921m-115.849-8.26c4.238-1.987 12.839-7.345 13.336-12.876m-13.336 12.876a107 107 0 0 1-1.778-2.047m15.114-10.829c7.036 7.759 15.09 13.685 24.317 17.034 22.897 8.309 40.18 6.996 53.194 0m-77.511-17.034a86 86 0 0 1-1.603-1.819m-13.511 12.648c3.969-1.649 12.229-6.487 13.511-12.648m-13.511 12.648c-22.223-26.226-35.861-66.538-43.54-103.708m57.051 91.06c-19.799-23.124-31.266-60.953-38.075-95.751m-18.976 4.691c3.431-1.863 12.031-5.41 18.976-4.691m-18.976 4.691a395 395 0 0 1-.634-3.129m19.61-1.562q-.253-1.289-.496-2.572m-19.114 4.134c-4.331-21.797-6.616-42.335-7.395-58.084l18.307-5.881c1.411 14.764 3.771 36.511 8.202 59.831m-19.114 4.134c2.796-1.696 10.533-4.897 19.114-4.134m154.084 48.676c3.569-1.225 12.325-2.41 18.8 2.656m-18.8-2.656q.233-1.62.436-3.216m-.436 3.216c-2.677 18.595-8.357 39.205-19.716 53.983m38.516-51.327q.242-1.674.455-3.348m-.455 3.348c-2.504 17.335-7.321 34.68-15.259 49.45m-3.105-55.322a217 217 0 0 0 1.718-26.91c3.648.566 12.49 3.39 18.676 10.156a216 216 0 0 1-1.575 19.278m-18.819-2.524c3.24-.85 11.539-1.534 18.819 2.524m-38.971 54.675c-21.193-4.126-39.16-16.769-54.684-34.797m38.001 49.314c-20.401-6.082-38.596-20.681-54.374-39.433m94.314 23.039c-4.107 7.64-9.048 14.592-14.938 20.496m14.938-20.496a35 35 0 0 0 3.603-1.049m-18.541 21.545c8.245.046 16.381-1.473 24.248-4.102m28.745-38.627c3.728 1.811 11.343 7.301 11.99 14.772m-11.99-14.772q1.247-1.049 2.511-2.155m-2.511 2.155c-13.09 11.026-24.571 17.341-32.229 20.361m44.219-5.589q1.233-1.027 2.434-2.064m-2.434 2.064c-11.177 9.307-24.197 17.817-38.137 22.942m28.658-39.869c7.632-6.681 15.749-14.945 23.931-25.062 9.04 3.191 15.279 6.689 17.268 8.039-5.994 8.565-16.279 20.658-29.286 31.886m-11.913-14.863c3.234 1.779 10.144 7.243 11.913 14.863m-46.653 7.653c2.05 2.293 6.137 8.974 6.082 17.353m-6.082-17.353q-1.172.462-2.223.823m8.305 16.53q-1.294.477-2.598.913m-5.707-17.443c1.935 1.913 5.784 8.081 5.707 17.443m-105.619-41.842c4.142-.511 13.237-3.168 16.478-9.707m-16.478 9.707q.991 1.215 1.995 2.409m-1.995-2.409c-11.908-14.603-22.397-31.527-31.373-48.818m47.851 39.111a161 161 0 0 0 1.89 2.235m-1.89-2.235c-10.89-13.119-20.563-28.892-29.3-46.196m14.817 58.312c3.68-.198 12.106-2.451 16.373-9.881m-50.758-43.319c-15.797-30.875-26.773-62.687-32.392-84.374l17.561-6.472c8.451 30.745 20.237 59.954 33.125 83.187m-18.294 7.659c3.865-2.503 12.935-7.539 18.294-7.659m-18.294 7.659q.505.987 1.017 1.973m17.277-9.632q.633 1.278 1.274 2.547m-18.551 7.085c3.755-1.973 12.073-7.41 18.551-7.085" stroke="#fff"/><path d="m251.838 612.007.397-3.049 23.551-181.062 62.734 9.294 56.693 8.399-6.592 62.762-10.246 97.555-2.981 28.389-8.775-1.583-63.221-11.404z" fill="#000"/><path fill-rule="evenodd" clip-rule="evenodd" d="M268.451 417.947 242.34 619.785l139.67 24.453 21.966-206.811zm-16.613 194.06.397-3.049 23.551-181.062 62.734 9.294 56.693 8.399-6.592 62.762-10.246 97.555-2.981 28.389-8.775-1.583-63.221-11.404z" fill="#000"/><path d="m275.786 452.233 27.612 48.631m15.568 27.42-15.568-27.42m-30.673-6.615 30.673 6.615m-37.245 31.879L329.294 548m-77.059 60.958 23.551-181.062 62.734 9.294m-86.285 171.768-.397 3.049 51.56 9.301m-51.163-12.35 13.918-9.291m30.984-20.683-30.984 20.683m0 0 8.215-25.612m10.093 36.147 33.328-35.187M343.377 548l24.881-102.411M343.377 548l-9.342-41.427M343.377 548l-25.588 27.015m3.993-122.782 12.253 54.34m0 0 7.934-12.324m0 0-3.449-57.059m3.449 57.059.54 16.009m-3.989-73.068 56.693 8.399-6.592 62.762m-33.508 28.852 33.508-28.852m0 0-10.246 97.555m-39.693-48.752-18.965 34.483m-16.319 29.671 63.221 11.404m-63.221-11.404 16.319-29.671m29.293-40.585 29.365 54.854m0 0-2.981 28.389-8.775-1.583m-13.384-67.342 13.384 67.342m-27.937-34.95-9.388 8.144m-11.505-30.891 1.928 16.622m-51.266-173.69L242.34 619.785l139.67 24.453 21.966-206.811z" stroke="#fff"/><path d="m125.901-5.02 18.914-2.82a1039 1039 0 0 0 3.674 19.945c3.161 16.27 6.62 32.026 10.255 47.125 12.56 52.176 27.222 96.506 38.97 127.095 5.23 13.616 9.882 24.51 13.515 32.161-4.294 2.684-13.848 7.649-17.712 6.038-4.376-9.418-8.621-19.436-12.714-29.846-8.097-20.6-15.596-42.732-22.319-64.78-6.655-21.823-12.55-43.563-17.515-63.652-4.5-18.204-8.236-35.051-11.081-49.376-1.629-8.195-2.965-15.565-3.987-21.89m170.31 196.545c-4.127 1.834-13.93 5.625-19.433 6.175.965-12.627 1.698-26.5 2.231-40.997-1.199-.145-3.551-.777-3.369-2.14.598-12.311 1.417-38.245 1.344-44.214.647-.955 1.67-1.895 3.094-2.657a2157 2157 0 0 0-.112-46.842c-1.147-.305-3.534-1.496-3.898-3.826a1.6 1.6 0 0 1-.007-.459l-.721-43.128c.256-.676 1.225-1.685 3.303-2.533-.447-10.568-.977-19.864-1.566-27.403 4.586-3.898 14.321-10.993 18.723-1.638.922 7.876 1.661 17.75 2.231 28.97 2.302 1.034 3.103 2.375 3.153 3.24l2.092 42.314c.219 2.33-2.475 3.276-3.849 3.459.182 15.888.157 32.455-.052 48.662 1.083.646 1.862 1.368 2.446 2.113.218 5.169-.267 32.875-.628 46.082 0 1.196-2.062 1.343-3.093 1.266-.509 12.568-1.144 23.991-1.889 33.556" fill="#000"/><path d="M129.888 16.87c-1.629-8.195-2.965-15.565-3.987-21.89l18.914-2.82a1039 1039 0 0 0 3.674 19.945m-18.601 4.765c2.487-7.26 13.455-9.206 18.601-4.766m-18.601 4.766c2.845 14.325 6.581 31.172 11.081 49.376m7.52-54.141c3.161 16.27 6.62 32.026 10.255 47.125m-17.775 7.016c0-6.078 14.016-10.472 17.775-7.016m-17.775 7.016c4.965 20.089 10.86 41.829 17.515 63.652m.26-70.668c12.56 52.176 27.222 96.506 38.97 127.095m-39.23-56.427c1.416-3.827 5.803-10.398 17.483-7.345m-17.483 7.345c6.723 22.048 14.222 44.18 22.319 64.78m0 0c4.093 10.41 8.338 20.428 12.714 29.846 3.864 1.611 13.418-3.354 17.712-6.038-3.633-7.651-8.285-18.545-13.515-32.161m-16.911 8.353c1.674-6.411 10.248-10.627 16.911-8.353M279.966 60.85c-1.147-.305-3.534-1.496-3.898-3.826m3.898 3.826q-.026-1.921-.054-3.826c8.535-3.93 16.544-1.638 19.481 0q.019 1.407.034 2.822m-19.461 1.004c.2 15.067.249 30.923.112 46.842m-4.01-50.668-.728-43.587c.256-.676 1.225-1.685 3.303-2.533m-2.575 46.12c-.216-1.384 1.336-2.686 3.786-3.641 2.705-1.056 6.504-1.689 10.228-1.546 3.599.139 6.87.558 9.256 1.317 2.32.738 3.804 1.798 3.938 3.233m0 0c.219 2.33-2.475 3.276-3.849 3.459m3.849-3.459-2.092-42.313c-.05-.866-.851-2.207-3.153-3.24m1.396 49.012c.182 15.888.157 32.455-.052 48.662m-1.344-97.674c-1.891-.85-4.797-1.492-9.132-1.492-4.855 0-8.133.697-10.256 1.562m19.388-.07c-.57-11.22-1.309-21.095-2.231-28.971-4.402-9.355-14.137-2.26-18.723 1.638.589 7.539 1.119 16.835 1.566 27.403m.366 145.799c-.533 14.497-1.266 28.37-2.231 40.997 5.503-.55 15.306-4.341 19.433-6.175.745-9.565 1.38-20.988 1.889-33.556m-19.091-1.266c-1.199-.145-3.551-.777-3.369-2.14m3.369 2.14.063-1.72c3.127-.607 11.321-1.114 19.079 1.72l-.051 1.266m-22.46-3.406c.598-12.311 1.417-38.245 1.344-44.214.647-.955 1.67-1.895 3.094-2.657m-4.438 46.871c.095-.712 1.5-1.245 3.501-1.584 2.786-.471 6.728-.563 9.9-.233 3.158.329 6.736 1.104 9.187 1.987 1.779.642 2.965 1.342 2.965 1.97m0 0c0 1.196-2.062 1.343-3.093 1.266m3.093-1.266c.361-13.207.846-40.913.628-46.082-.584-.745-1.363-1.467-2.446-2.113m0 0c-1.957-1.168-4.905-2.085-9.475-2.436-4.341-.334-7.58.421-9.822 1.62" stroke="#fff"/><path fill-rule="evenodd" clip-rule="evenodd" d="m158.847 233.806 217.621-68.677 39.06 166.113-222.863 73.631zm43.04 154.725-29.703-145.95 194.722-62.707 33.737 145.216z" fill="#000"/><path d="m172.184 242.581 29.703 145.95 198.756-63.441-33.737-145.216z" fill="#000"/><path clip-rule="evenodd" d="m158.847 233.806 217.621-68.677 39.06 166.113-222.863 73.631zm43.04 154.725-29.703-145.95 194.722-62.707 33.737 145.216z" stroke="#fff"/><path d="m172.184 242.581 29.703 145.95 198.756-63.441-33.737-145.216z" stroke="#fff"/><path fill-rule="evenodd" clip-rule="evenodd" d="m509.554 241.114-43.796 97.884-8.185 18.293-5.497 12.286-9.629 21.521 217.091 97.911 65.274-145.216zm204.197 108.052-197.132-92.582-58.331 128.887 196.44 90.285z" fill="#000"/><path d="M431.151 339.882c-8.116-1.765-16.471 18.486-2.588 25.661 4.108.047 7.706.258 10.943.673-3.65-12.788 0-20.786 4.056-24.825-4.316-.019-8.448-.625-12.411-1.509" fill="#000"/><path d="M443.562 366.882c-4.056-10.748.21-22.109 3.343-25.54a90 90 0 0 1-3.343.049c-4.056 4.039-7.706 12.037-4.056 24.825 1.417.181 2.765.402 4.056.666" fill="#000"/><path d="m452.076 369.577 5.497-12.286c-1.727-5.849 1.75-14.043 3.705-17.409a110 110 0 0 1-14.373 1.46c-3.133 3.431-7.399 14.792-3.343 25.54 3.107.634 5.887 1.516 8.514 2.695" fill="#000"/><path d="M465.758 338.998a78 78 0 0 1-4.48.884c-1.955 3.366-5.432 11.56-3.705 17.409zm50.861-82.414 197.132 92.582-59.023 126.59-196.44-90.285z" fill="#000"/><path d="m465.758 338.998 43.796-97.884 215.258 102.679-65.274 145.216-217.091-97.911 9.629-21.521m13.682-30.579a78 78 0 0 1-4.48.884m4.48-.884-8.185 18.293m-5.497 12.286 5.497-12.286m-5.497 12.286c-2.627-1.179-5.407-2.061-8.514-2.695m17.716-27c-1.955 3.366-5.432 11.56-3.705 17.409m3.705-17.409a110 110 0 0 1-14.373 1.46m0 0c-3.133 3.431-7.399 14.792-3.343 25.54m3.343-25.54a90 90 0 0 1-3.343.049m0 25.491a55 55 0 0 0-4.056-.666m4.056-24.825c-4.316-.019-8.448-.625-12.411-1.509-8.116-1.765-16.471 18.486-2.588 25.661 4.108.047 7.706.258 10.943.673m4.056-24.825c-4.056 4.039-7.706 12.037-4.056 24.825m77.113-109.632 197.132 92.582-59.023 126.59-196.44-90.285z" stroke="#fff"/></svg>