<svg xmlns="http://www.w3.org/2000/svg" width="90" height="90" viewBox="0 0 90 90"><path stroke="#fff" d="M51.634 61.636a.5.5 0 0 0 .436-.223L62.818 45.25c2.525 2.57 7.383 7.547 7.551 7.722.27.28.777.51 1.236.186a.86.86 0 0 0 .362-.516c.058-.254-.005-.515-.111-.77-.216-.514-7.836-19.387-8.366-20.768l-.028-.074a8 8 0 0 0-.366-.864c-.13-.245-.34-.568-.707-.683-.4-.124-.77.057-1.064.285-.303.235-.645.611-1.045 1.127C58.956 32.6 56.94 35.09 54.582 38l-1.35 1.667c-.283.35-.478.43-.542.436-.014 0-.018 0-.03-.01a.5.5 0 0 1-.134-.196c-1.612-3.57-3.599-7.98-5.49-12.177a4862 4862 0 0 0-6.519-14.436c-.159-.34-.308-.657-.45-.904a2.6 2.6 0 0 0-.234-.349 1.1 1.1 0 0 0-.338-.286.72.72 0 0 0-.562-.046.9.9 0 0 0-.409.297c-.182.22-.338.557-.49.968-.287.78-5.995 17.835-11.764 35.07-3.07 9.173-6.157 18.396-8.452 25.244l-.012.034c-.047.137-.121.357-.123.568a.84.84 0 0 0 .11.437.87.87 0 0 0 .36.333.96.96 0 0 0 .534.116.83.83 0 0 0 .443-.18c.192-.153.293-.379.285-.364.183-.33 11.714-20.42 19.252-33.466.167-.29.302-.451.4-.533a.3.3 0 0 1 .085-.055.4.4 0 0 1 .145.113c.105.109.227.281.368.529 2.56 4.498 5.447 9.64 7.695 13.658a3564 3564 0 0 1 3.57 6.395l.213.383.055.099.014.025.003.006.001.002.009-.005c.023-.012.11-.06.428-.238l-.436.243a.5.5 0 0 0 .417.257M39.16 40.168h-.005zm49.784 4.438c0 24.358-19.746 44.104-44.104 44.104S.736 68.964.736 44.606 20.482.502 44.84.502s44.104 19.746 44.104 44.104"/></svg>