<svg xmlns="http://www.w3.org/2000/svg" width="91" height="91" viewBox="0 0 91 91"><path stroke="#fff" d="m45.446 54.947-.406.291v-.001l-.003-.003-.008-.011-.028-.04-.099-.148a14 14 0 0 1-.346-.558 19 19 0 0 1-1.039-2.049c-.753-1.735-1.511-4.17-1.511-6.944s.758-5.21 1.511-6.945a19 19 0 0 1 1.04-2.05 14 14 0 0 1 .444-.705l.028-.04.008-.01.002-.004v-.001h.001l.406.29-.406-.29.628-.874q-.09-.108-.183-.214a16.5 16.5 0 0 0-2.893 4.656l-.346.845-.526-.746c-1.91-2.71-5.055-4.488-8.613-4.488-5.806 0-10.534 4.729-10.534 10.534s4.728 10.534 10.534 10.534c3.541 0 6.675-1.756 8.585-4.447l.53-.748.342.85a16.3 16.3 0 0 0 2.85 4.648 16.5 16.5 0 0 0 2.893-4.656l.345-.845.526.746c1.911 2.709 5.056 4.487 8.614 4.487 5.805 0 10.534-4.728 10.534-10.534 0-5.805-4.729-10.533-10.534-10.533-3.542 0-6.675 1.756-8.585 4.447l-.53.747-.342-.85a16.3 16.3 0 0 0-2.389-4.094v.671l.039.056c.085.124.204.304.346.538.284.467.661 1.145 1.038 2 .752 1.71 1.506 4.138 1.506 7 0 2.864-.754 5.305-1.506 7.027a17.5 17.5 0 0 1-1.037 2.018 12 12 0 0 1-.473.726l-.008.01-.002.004h-.001v.001zm0 0-.406.292.4.555.407-.548zm-12.34 7.91c4.814 0 9.172-1.956 12.327-5.114a17.36 17.36 0 0 0 12.359 5.15c9.616 0 17.415-7.8 17.415-17.415 0-9.617-7.8-17.416-17.415-17.416a17.37 17.37 0 0 0-12.326 5.115 17.36 17.36 0 0 0-12.36-5.15c-9.615 0-17.415 7.8-17.415 17.415 0 9.616 7.8 17.416 17.416 17.416m56.809-17.394c0 24.557-19.908 44.465-44.466 44.465C20.893 89.928.984 70.02.984 45.463S20.892.998 45.45.998c24.557 0 44.465 19.908 44.465 44.465"/></svg>