<svg xmlns="http://www.w3.org/2000/svg" width="83" height="79" viewBox="0 0 83 79"><path stroke="#fff" d="M4.423 5.6c0-1.508.914-2.74 2.41-3.619C8.33 1.099 10.35.615 12.372.615h55.292c1.877 0 3.821.542 5.283 1.457 1.468.92 2.367 2.155 2.367 3.527 0 1.374-.986 2.59-2.53 3.493-1.53.895-3.489 1.403-5.152 1.403H12.34c-1.578 0-3.601-.423-5.214-1.276-1.621-.857-2.704-2.072-2.704-3.62ZM.569 45.973c0-12.284 6.49-20.036 14.798-24.743C23.699 16.51 33.84 14.87 41 14.87c8.37 0 18.547 1.898 26.613 6.742 8.043 4.831 13.981 12.582 13.981 24.36 0 11.792-5.647 19.707-13.535 24.697-7.911 5.005-18.084 7.067-27.06 7.067-8.282 0-18.416-1.805-26.461-6.683C6.519 66.192.568 58.278.568 45.974Zm61.41 0c0-9.323-3.959-14.477-8.606-17.272-4.608-2.771-9.835-3.19-12.373-3.19-2.381 0-7.578.402-12.196 3.163-4.658 2.785-8.67 7.939-8.67 17.299 0 9.342 3.73 14.67 8.252 17.639 4.487 2.945 9.689 3.526 12.614 3.526s8.156-.599 12.67-3.552c4.55-2.976 8.31-8.304 8.31-17.614Z"/></svg>