<svg xmlns="http://www.w3.org/2000/svg" width="91" height="97" viewBox="0 0 91 97"><path stroke="#fff" d="m45.529 1.614 11.133 11.807.188.2.268-.051 15.947-3.008 2.068 16.096.034.271.248.117 14.67 6.94-7.79 14.237-.13.24.13.24 7.79 14.237-14.67 6.94-.248.117-.034.271-2.067 16.096-15.948-3.008-.268-.05-.188.198-11.133 11.807-11.134-11.807-.187-.199-.27.051-15.946 3.008-2.067-16.096-.035-.271-.248-.117-14.67-6.94 7.79-14.237.131-.24-.131-.24-7.79-14.237 14.67-6.94.248-.117.035-.271 2.067-16.096 15.947 3.008.269.05.187-.199z"/></svg>