<svg xmlns="http://www.w3.org/2000/svg" width="93" height="88" viewBox="0 0 93 88"><path stroke="#fff" fill="none" d="m61.57 27.67.115.216.242.043 27.957 4.837c1.636.283 2.285 2.283 1.128 3.473L71.238 56.585l-.171.176.035.244 4.038 28.083c.237 1.643-1.465 2.88-2.954 2.147l-25.461-12.52-.22-.108-.221.109-25.46 12.519c-1.49.732-3.192-.504-2.956-2.147l4.039-28.083.035-.244-.171-.176L1.996 36.24c-1.157-1.19-.507-3.19 1.129-3.473l27.957-4.837.242-.042.115-.218 13.24-25.093c.774-1.469 2.877-1.469 3.652 0z"/></svg>